<svg width="18" height="20" viewBox="0 0 18 20" fill="none" xmlns="http://www.w3.org/2000/svg">
<path d="M17.3623 12.2962C17.3623 16.4895 13.4067 19.8623 8.63021 19.6119C3.72085 19.3546 0.359346 15.21 0.99256 10.8776C1.37561 8.24198 2.78276 5.9819 4.31498 4.22947C4.58077 3.92349 4.85438 6.38523 5.12799 6.11402C5.4016 5.83586 7.94228 1.97634 8.82565 0.620295C8.98981 0.369948 9.36505 0.293453 9.63084 0.474259C11.4054 1.6495 17.3623 6.06535 17.3623 12.2962Z" fill="#FF6723"/>
<path d="M15.0128 14.0227C15.0128 16.8014 12.2571 19.0351 8.90509 18.9342C5.28718 18.8266 2.80541 15.92 3.33722 12.926C4.1027 8.63351 9.12265 5.875 9.12265 5.875C9.12265 5.875 15.0128 9.11121 15.0128 14.0227Z" fill="#FFB02E"/>
</svg>
