<svg width="22" height="22" viewBox="0 0 22 22" fill="none" xmlns="http://www.w3.org/2000/svg">
<path d="M1.63797 20.2778C1.28734 19.9272 1.28734 19.3634 1.63797 19.0128L7.79797 12.8528L9.06297 14.1178L2.90297 20.2778C2.55234 20.6284 1.98859 20.6284 1.63797 20.2778Z" fill="#D3D3D3"/>
<path d="M13.7723 13.1821L16.937 10.0174L15.8122 5.84375L11.8278 4.90817L8.66309 8.07289L9.62473 12.0313L13.7723 13.1821Z" fill="#CA0B4A"/>
<path d="M11.8134 4.89844L16.949 10.0272C17.6503 10.7284 18.7847 10.7284 19.4859 10.0272L20.249 9.26406C20.5378 8.97531 20.5378 8.50781 20.249 8.21906L13.6215 1.59156C13.3328 1.30281 12.8653 1.30281 12.5765 1.59156L11.8134 2.35469C11.1122 3.05594 11.1122 4.19719 11.8134 4.89844Z" fill="#F8312F"/>
<path d="M4.18219 10.0134L11.8272 17.6584C12.1847 18.0159 12.7691 18.0159 13.1266 17.6584L13.7522 17.0328C14.8247 15.9603 14.8247 14.2278 13.7522 13.1553L8.68531 8.08842C7.61281 7.01592 5.88031 7.01592 4.80781 8.08842L4.18219 8.71404C3.82469 9.07154 3.82469 9.65592 4.18219 10.0134Z" fill="#F8312F"/>
</svg>
