<svg width="21" height="16" viewBox="0 0 21 16" fill="none" xmlns="http://www.w3.org/2000/svg">
<path d="M4.28515 4.34826C7.18346 3.30649 8.32421 0.991139 8.94725 0.463051C9.5703 -0.0650365 10.7307 -0.124307 11.4429 0.463051C12.3633 1.22218 12.0374 1.91922 11.418 2.83944C11.2085 3.15063 10.5049 4.10307 10.5049 4.10307H18.1316C19.5818 4.10307 20.2225 5.02572 20.2225 5.72581C20.2225 6.4259 19.4207 7.26216 18.1316 7.26216H14.834C14.834 7.26216 15.7148 7.56504 15.7148 8.6495C15.7148 9.73396 14.5976 10.044 14.5976 10.044C14.5976 10.044 15.1455 10.3552 15.1455 11.3643C15.1455 12.3167 14.0498 12.7411 14.0498 12.7411C14.0498 12.7411 14.4258 13.1277 14.4258 13.9764C14.4258 14.6271 13.459 15.5418 12.331 15.5418C7.45631 15.5418 0.381871 15.2032 0.381871 9.53406C0.374996 8.03128 1.38683 5.39002 4.28515 4.34826Z" fill="#FFD7C2"/>
</svg>
