<svg width="100" height="100" viewBox="0 0 100 100" fill="none" xmlns="http://www.w3.org/2000/svg">
<g clip-path="url(#clip0_104_5134)">
<path d="M96.4807 49.998C98.0251 48.1996 99.1074 46.0515 99.6336 43.7401C100.16 41.4287 100.114 39.0239 99.5006 36.7341C98.887 34.4444 97.724 32.3389 96.1125 30.6004C94.501 28.8619 92.4897 27.5428 90.253 26.7576C90.6912 24.4278 90.5544 22.0263 89.8544 19.7614C89.1543 17.4965 87.9122 15.4365 86.2358 13.7604C84.5594 12.0842 82.4994 10.8424 80.2344 10.1426C77.9694 9.44287 75.5678 9.30636 73.2381 9.74491C72.4535 7.50768 71.1347 5.49578 69.3961 3.88388C67.6576 2.27199 65.5519 1.10881 63.2618 0.495351C60.9717 -0.118112 58.5665 -0.163318 56.255 0.363656C53.9435 0.89063 51.7956 1.97386 49.9977 3.51929C48.1992 1.97492 46.0512 0.89267 43.7398 0.366424C41.4284 -0.159822 39.0235 -0.11417 36.7338 0.499417C34.444 1.11301 32.3386 2.276 30.6 3.8875C28.8615 5.49901 27.5424 7.51036 26.7572 9.74707C24.4276 9.30923 22.0263 9.44636 19.7617 10.1466C17.4971 10.8468 15.4375 12.0889 13.7616 13.7653C12.0857 15.4416 10.8441 17.5015 10.1444 19.7663C9.44481 22.0311 9.30829 24.4324 9.74673 26.7619C7.51002 27.5471 5.49867 28.8662 3.88716 30.6047C2.27565 32.3432 1.11265 34.4487 0.499062 36.7384C-0.114525 39.0282 -0.160184 41.4331 0.366062 43.7444C0.892308 46.0558 1.97458 48.2039 3.51895 50.0023C1.97411 51.8007 0.891505 53.949 0.36511 56.2606C-0.161286 58.5722 -0.115588 60.9774 0.498269 63.2673C1.11213 65.5573 2.27557 67.6628 3.88763 69.4012C5.49969 71.1396 7.51167 72.4582 9.7489 73.2428C9.31008 75.5723 9.44644 77.9738 10.1462 80.2387C10.8459 82.5036 12.0878 84.5636 13.7641 86.2397C15.4405 87.9158 17.5006 89.1575 19.7656 89.8569C22.0306 90.5563 24.4321 90.6924 26.7616 90.2533C27.5468 92.49 28.8658 94.5013 30.6044 96.1128C32.3429 97.7244 34.4483 98.8873 36.7381 99.5009C39.0278 100.115 41.4327 100.16 43.7441 99.6339C46.0555 99.1077 48.2036 98.0254 50.002 96.4811C51.8004 98.0259 53.9486 99.1085 56.2603 99.6349C58.5719 100.161 60.977 100.116 63.267 99.5017C65.5569 98.8879 67.6625 97.7244 69.4008 96.1124C71.1392 94.5003 72.4579 92.4883 73.2425 90.2511C75.5721 90.6898 77.9736 90.5534 80.2385 89.8536C82.5035 89.1539 84.5635 87.912 86.2397 86.2358C87.916 84.5595 89.1579 82.4995 89.8576 80.2346C90.5574 77.9696 90.6938 75.5681 90.2551 73.2385C92.492 72.4534 94.5035 71.1344 96.1151 69.3958C97.7267 67.6572 98.8896 65.5516 99.5031 63.2617C100.116 60.9718 100.162 58.5668 99.6351 56.2554C99.1084 53.944 98.0257 51.7961 96.4807 49.998Z" fill="#F29D38"/>
<path d="M41.0246 69.0843L27.1301 55.1986C26.6028 54.6704 26.3066 53.9546 26.3066 53.2082C26.3066 52.4619 26.6028 51.746 27.1301 51.2179L28.8182 49.5277C29.3464 49.0004 30.0622 48.7042 30.8085 48.7042C31.5549 48.7042 32.2707 49.0004 32.7989 49.5277L42.899 59.6213L66.6855 34.3439C67.1973 33.8008 67.9037 33.483 68.6496 33.4603C69.3956 33.4375 70.12 33.7117 70.664 34.2226L72.3976 35.8586C72.9413 36.3705 73.2595 37.0774 73.2822 37.8238C73.305 38.5703 73.0304 39.2952 72.5189 39.8393L45.0724 69.0215C44.814 69.2969 44.5028 69.5175 44.1574 69.6703C43.812 69.823 43.4394 69.9048 43.0618 69.9106C42.6842 69.9165 42.3092 69.8464 41.9593 69.7044C41.6093 69.5625 41.2914 69.3516 41.0246 69.0843Z" fill="#FCFCFC"/>
</g>
<defs>
<clipPath id="clip0_104_5134">
<rect width="100" height="100" fill="white"/>
</clipPath>
</defs>
</svg>
