<svg width="18" height="10" viewBox="0 0 18 10" fill="none" xmlns="http://www.w3.org/2000/svg">
<path d="M13.1665 0.833374H9.83317V2.50004H13.1665C14.5415 2.50004 15.6665 3.62504 15.6665 5.00004C15.6665 6.37504 14.5415 7.50004 13.1665 7.50004H9.83317V9.16671H13.1665C15.4665 9.16671 17.3332 7.30004 17.3332 5.00004C17.3332 2.70004 15.4665 0.833374 13.1665 0.833374ZM8.1665 7.50004H4.83317C3.45817 7.50004 2.33317 6.37504 2.33317 5.00004C2.33317 3.62504 3.45817 2.50004 4.83317 2.50004H8.1665V0.833374H4.83317C2.53317 0.833374 0.666504 2.70004 0.666504 5.00004C0.666504 7.30004 2.53317 9.16671 4.83317 9.16671H8.1665V7.50004ZM5.6665 4.16671H12.3332V5.83337H5.6665V4.16671Z" fill="#F29D38"/>
</svg>
