<svg width="33" height="33" viewBox="0 0 33 33" fill="none" xmlns="http://www.w3.org/2000/svg">
<g clip-path="url(#clip0_110_1264)">
<path d="M16.5723 2.75C11.251 2.75 6.94727 7.05375 6.94727 12.375C6.94727 19.5938 16.5723 30.25 16.5723 30.25C16.5723 30.25 26.1973 19.5938 26.1973 12.375C26.1973 7.05375 21.8935 2.75 16.5723 2.75ZM9.69727 12.375C9.69727 8.58 12.7773 5.5 16.5723 5.5C20.3673 5.5 23.4473 8.58 23.4473 12.375C23.4473 16.335 19.4873 22.2613 16.5723 25.96C13.7123 22.2888 9.69727 16.2938 9.69727 12.375Z" fill="#ACACAC"/>
<path d="M16.4639 15.8125C18.3623 15.8125 19.9014 14.2735 19.9014 12.375C19.9014 10.4765 18.3623 8.9375 16.4639 8.9375C14.5654 8.9375 13.0264 10.4765 13.0264 12.375C13.0264 14.2735 14.5654 15.8125 16.4639 15.8125Z" fill="#ACACAC"/>
</g>
<defs>
<clipPath id="clip0_110_1264">
<rect width="33" height="33" fill="white"/>
</clipPath>
</defs>
</svg>
