<svg width="30" height="30" viewBox="0 0 30 30" fill="none" xmlns="http://www.w3.org/2000/svg">
<path d="M22.6443 7.51117C21.2976 6.63314 20.3257 5.22827 20.0224 3.59058C19.9569 3.23674 19.921 2.87259 19.921 2.5H15.6229L15.6161 19.725C15.5438 21.6538 13.9562 23.202 12.01 23.202C11.4052 23.202 10.8356 23.0508 10.3341 22.7869C9.18413 22.1817 8.39714 20.9763 8.39714 19.5891C8.39714 17.5969 10.018 15.976 12.01 15.976C12.3819 15.976 12.7386 16.0374 13.0761 16.1431V11.7553C12.7269 11.7078 12.3721 11.678 12.01 11.678C7.64787 11.678 4.09912 15.2269 4.09912 19.5891C4.09912 22.2655 5.43631 24.634 7.47635 26.0662C8.76133 26.9683 10.3243 27.5 12.01 27.5C16.3722 27.5 19.921 23.9513 19.921 19.5891V10.8546C21.6067 12.0645 23.672 12.7775 25.9006 12.7775V8.47949C24.7001 8.47949 23.582 8.1226 22.6443 7.51117Z" fill="black"/>
</svg>
