<svg width="30" height="30" viewBox="0 0 30 30" fill="none" xmlns="http://www.w3.org/2000/svg">
<path fill-rule="evenodd" clip-rule="evenodd" d="M24.7401 6.76829C25.8151 7.05712 26.6656 7.90758 26.9544 8.98267C27.484 10.9403 27.5 15 27.5 15C27.5 15 27.5 19.0757 26.9705 21.0173C26.6816 22.0924 25.8312 22.9429 24.7561 23.2317C22.8145 23.7612 15 23.7612 15 23.7612C15 23.7612 7.18549 23.7612 5.2439 23.2317C4.16881 22.9429 3.31836 22.0924 3.02953 21.0173C2.5 19.0597 2.5 15 2.5 15C2.5 15 2.5 10.9403 3.01348 8.99872C3.30231 7.92362 4.15276 7.07317 5.22786 6.78434C7.16945 6.25481 14.984 6.23877 14.984 6.23877C14.984 6.23877 22.7985 6.23877 24.7401 6.76829ZM18.9795 15L12.4968 18.7548V11.2452L18.9795 15Z" fill="black"/>
</svg>
