<svg width="18" height="18" viewBox="0 0 18 18" fill="none" xmlns="http://www.w3.org/2000/svg">
<path d="M16.8415 8.64996L9.3415 1.14996C9.0415 0.849959 8.62484 0.666626 8.1665 0.666626H2.33317C1.4165 0.666626 0.666504 1.41663 0.666504 2.33329V8.16663C0.666504 8.62496 0.849837 9.04163 1.15817 9.34996L8.65817 16.85C8.95817 17.15 9.37484 17.3333 9.83317 17.3333C10.2915 17.3333 10.7082 17.15 11.0082 16.8416L16.8415 11.0083C17.1498 10.7083 17.3332 10.2916 17.3332 9.83329C17.3332 9.37496 17.1415 8.94996 16.8415 8.64996ZM3.58317 4.83329C2.8915 4.83329 2.33317 4.27496 2.33317 3.58329C2.33317 2.89163 2.8915 2.33329 3.58317 2.33329C4.27484 2.33329 4.83317 2.89163 4.83317 3.58329C4.83317 4.27496 4.27484 4.83329 3.58317 4.83329ZM13.3915 11.725L9.83317 15.2833L6.27484 11.725C5.89984 11.3416 5.6665 10.825 5.6665 10.25C5.6665 9.09996 6.59984 8.16663 7.74984 8.16663C8.32484 8.16663 8.84984 8.39996 9.22484 8.78329L9.83317 9.38329L10.4415 8.77496C10.8165 8.39996 11.3415 8.16663 11.9165 8.16663C13.0665 8.16663 13.9998 9.09996 13.9998 10.25C13.9998 10.825 13.7665 11.35 13.3915 11.725Z" fill="#F29D38"/>
</svg>
