<svg width="30" height="30" viewBox="0 0 30 30" fill="none" xmlns="http://www.w3.org/2000/svg">
<path fill-rule="evenodd" clip-rule="evenodd" d="M15 3.75C11.9445 3.75 11.562 3.76275 10.362 3.8175C9.16425 3.87225 8.346 4.06275 7.6305 4.341C6.8805 4.623 6.20025 5.0655 5.63775 5.6385C5.06567 6.20035 4.62289 6.88012 4.34025 7.6305C4.0635 8.346 3.87225 9.165 3.8175 10.3628C3.7635 11.562 3.75 11.9438 3.75 15C3.75 18.0562 3.76275 18.438 3.8175 19.638C3.87225 20.8358 4.06275 21.654 4.341 22.3695C4.623 23.1195 5.0655 23.7997 5.6385 24.3622C6.20037 24.9343 6.88013 25.3771 7.6305 25.6597C8.346 25.9373 9.16425 26.1278 10.362 26.1825C11.562 26.2372 11.9445 26.25 15 26.25C18.0555 26.25 18.438 26.2372 19.638 26.1825C20.8358 26.1278 21.654 25.9373 22.3695 25.659C23.1195 25.377 23.7997 24.9345 24.3622 24.3615C24.9343 23.7997 25.3771 23.1199 25.6597 22.3695C25.9373 21.654 26.1278 20.8358 26.1825 19.638C26.2372 18.438 26.25 18.0555 26.25 15C26.25 11.9445 26.2372 11.562 26.1825 10.362C26.1278 9.16425 25.9373 8.346 25.659 7.6305C25.3766 6.8798 24.9338 6.19974 24.3615 5.63775C23.7997 5.06567 23.1199 4.62289 22.3695 4.34025C21.654 4.0635 20.835 3.87225 19.6373 3.8175C18.438 3.7635 18.0562 3.75 15 3.75ZM15 5.77725C18.0037 5.77725 18.36 5.7885 19.5465 5.8425C20.643 5.89275 21.2385 6.075 21.6353 6.23025C22.1602 6.4335 22.5352 6.678 22.929 7.071C23.3228 7.46475 23.5665 7.83975 23.7698 8.36475C23.9242 8.7615 24.1073 9.357 24.1575 10.4535C24.2115 11.64 24.2228 11.9963 24.2228 15C24.2228 18.0037 24.2115 18.36 24.1575 19.5465C24.1073 20.643 23.925 21.2385 23.7698 21.6353C23.5897 22.1239 23.3024 22.566 22.929 22.929C22.5661 23.3025 22.124 23.5898 21.6353 23.7698C21.2385 23.9242 20.643 24.1073 19.5465 24.1575C18.36 24.2115 18.0045 24.2228 15 24.2228C11.9955 24.2228 11.64 24.2115 10.4535 24.1575C9.357 24.1073 8.7615 23.925 8.36475 23.7698C7.87609 23.5897 7.434 23.3024 7.071 22.929C6.69763 22.566 6.41035 22.1239 6.23025 21.6353C6.07575 21.2385 5.89275 20.643 5.8425 19.5465C5.7885 18.36 5.77725 18.0037 5.77725 15C5.77725 11.9963 5.7885 11.64 5.8425 10.4535C5.89275 9.357 6.075 8.7615 6.23025 8.36475C6.4335 7.83975 6.678 7.46475 7.071 7.071C7.43396 6.69753 7.87606 6.41023 8.36475 6.23025C8.7615 6.07575 9.357 5.89275 10.4535 5.8425C11.64 5.7885 11.9963 5.77725 15 5.77725Z" fill="black"/>
<path fill-rule="evenodd" clip-rule="evenodd" d="M14.9998 18.7537C14.5068 18.7537 14.0187 18.6566 13.5633 18.468C13.1079 18.2794 12.6941 18.0029 12.3455 17.6543C11.9969 17.3057 11.7204 16.8919 11.5318 16.4365C11.3431 15.9811 11.246 15.4929 11.246 15C11.246 14.507 11.3431 14.0189 11.5318 13.5635C11.7204 13.1081 11.9969 12.6942 12.3455 12.3457C12.6941 11.9971 13.1079 11.7206 13.5633 11.532C14.0187 11.3433 14.5068 11.2462 14.9998 11.2462C15.9953 11.2462 16.9501 11.6417 17.6541 12.3457C18.358 13.0496 18.7535 14.0044 18.7535 15C18.7535 15.9955 18.358 16.9503 17.6541 17.6543C16.9501 18.3582 15.9953 18.7537 14.9998 18.7537ZM14.9998 9.21748C13.4662 9.21748 11.9954 9.82671 10.9109 10.9111C9.82651 11.9956 9.21729 13.4664 9.21729 15C9.21729 16.5336 9.82651 18.0044 10.9109 19.0888C11.9954 20.1733 13.4662 20.7825 14.9998 20.7825C16.5334 20.7825 18.0042 20.1733 19.0886 19.0888C20.1731 18.0044 20.7823 16.5336 20.7823 15C20.7823 13.4664 20.1731 11.9956 19.0886 10.9111C18.0042 9.82671 16.5334 9.21748 14.9998 9.21748ZM22.4645 9.11248C22.4645 9.475 22.3205 9.82267 22.0642 10.079C21.8078 10.3353 21.4602 10.4794 21.0977 10.4794C20.7351 10.4794 20.3875 10.3353 20.1311 10.079C19.8748 9.82267 19.7308 9.475 19.7308 9.11248C19.7308 8.74996 19.8748 8.40229 20.1311 8.14595C20.3875 7.88962 20.7351 7.74561 21.0977 7.74561C21.4602 7.74561 21.8078 7.88962 22.0642 8.14595C22.3205 8.40229 22.4645 8.74996 22.4645 9.11248Z" fill="black"/>
</svg>
