<svg width="29" height="29" viewBox="0 0 29 29" fill="none" xmlns="http://www.w3.org/2000/svg">
<path d="M14.5 0.75C6.91 0.75 0.75 6.91 0.75 14.5C0.75 22.09 6.91 28.25 14.5 28.25C22.09 28.25 28.25 22.09 28.25 14.5C28.25 6.91 22.09 0.75 14.5 0.75ZM7.72125 23.135C8.3125 21.8975 11.915 20.6875 14.5 20.6875C17.085 20.6875 20.7013 21.8975 21.2788 23.135C19.4088 24.62 17.0575 25.5 14.5 25.5C11.9425 25.5 9.59125 24.62 7.72125 23.135ZM23.245 21.1413C21.2788 18.7488 16.5075 17.9375 14.5 17.9375C12.4925 17.9375 7.72125 18.7488 5.755 21.1413C4.3525 19.2988 3.5 17.0025 3.5 14.5C3.5 8.43625 8.43625 3.5 14.5 3.5C20.5638 3.5 25.5 8.43625 25.5 14.5C25.5 17.0025 24.6475 19.2988 23.245 21.1413ZM14.5 6.25C11.8325 6.25 9.6875 8.395 9.6875 11.0625C9.6875 13.73 11.8325 15.875 14.5 15.875C17.1675 15.875 19.3125 13.73 19.3125 11.0625C19.3125 8.395 17.1675 6.25 14.5 6.25ZM14.5 13.125C13.3588 13.125 12.4375 12.2038 12.4375 11.0625C12.4375 9.92125 13.3588 9 14.5 9C15.6413 9 16.5625 9.92125 16.5625 11.0625C16.5625 12.2038 15.6413 13.125 14.5 13.125Z" fill="#ACACAC"/>
</svg>
