<svg width="12" height="12" viewBox="0 0 12 12" fill="none" xmlns="http://www.w3.org/2000/svg">
<g clip-path="url(#clip0_104_3336)">
<path d="M10.705 5.79L6.205 1.29C6.025 1.11 5.775 1 5.5 1H2C1.45 1 1 1.45 1 2V5.5C1 5.775 1.11 6.025 1.295 6.21L5.795 10.71C5.975 10.89 6.225 11 6.5 11C6.775 11 7.025 10.89 7.205 10.705L10.705 7.205C10.89 7.025 11 6.775 11 6.5C11 6.225 10.885 5.97 10.705 5.79ZM2.75 3.5C2.335 3.5 2 3.165 2 2.75C2 2.335 2.335 2 2.75 2C3.165 2 3.5 2.335 3.5 2.75C3.5 3.165 3.165 3.5 2.75 3.5ZM8.635 7.635L6.5 9.77L4.365 7.635C4.14 7.405 4 7.095 4 6.75C4 6.06 4.56 5.5 5.25 5.5C5.595 5.5 5.91 5.64 6.135 5.87L6.5 6.23L6.865 5.865C7.09 5.64 7.405 5.5 7.75 5.5C8.44 5.5 9 6.06 9 6.75C9 7.095 8.86 7.41 8.635 7.635Z" fill="#323232"/>
</g>
<defs>
<clipPath id="clip0_104_3336">
<rect width="12" height="12" fill="white"/>
</clipPath>
</defs>
</svg>
