<svg width="25" height="31" viewBox="0 0 25 31" fill="none" xmlns="http://www.w3.org/2000/svg">
<path d="M16.625 8.625V26.4587L10.8363 23.97L9.75 23.5025L8.66375 23.97L2.875 26.4587V8.625H16.625ZM22.125 0.375H8.36125C6.84875 0.375 5.625 1.6125 5.625 3.125H19.375C20.8875 3.125 22.125 4.3625 22.125 5.875V23.75L24.875 25.125V3.125C24.875 1.6125 23.6375 0.375 22.125 0.375ZM16.625 5.875H2.875C1.3625 5.875 0.125 7.1125 0.125 8.625V30.625L9.75 26.5L19.375 30.625V8.625C19.375 7.1125 18.1375 5.875 16.625 5.875Z" fill="#ACACAC"/>
</svg>
