<svg width="22" height="22" viewBox="0 0 22 22" fill="none" xmlns="http://www.w3.org/2000/svg">
<path d="M3.32773 12.8237C4.10408 9.09561 7.34949 6.44669 11.0002 6.44669C14.6497 6.44669 17.8951 9.09561 18.6726 12.8237C18.7034 12.9716 18.7917 13.1013 18.9181 13.1841C19.0444 13.2669 19.1985 13.2962 19.3465 13.2654C19.4944 13.2346 19.6241 13.1463 19.7069 13.0199C19.7897 12.8935 19.8189 12.7394 19.7882 12.5915C18.9037 8.35114 15.2041 5.30835 11.0002 5.30835C6.79626 5.30835 3.09665 8.35114 2.21215 12.5915C2.18136 12.7394 2.21059 12.8935 2.29342 13.0199C2.37625 13.1463 2.5059 13.2346 2.65383 13.2654C2.80177 13.2962 2.95587 13.2669 3.08225 13.1841C3.20864 13.1013 3.29694 12.9716 3.32773 12.8237ZM10.9888 8.72338C12.0454 8.72338 13.0588 9.14314 13.806 9.89032C14.5532 10.6375 14.973 11.6509 14.973 12.7076C14.973 13.7642 14.5532 14.7776 13.806 15.5248C13.0588 16.272 12.0454 16.6918 10.9888 16.6918C9.9321 16.6918 8.9187 16.272 8.17152 15.5248C7.42434 14.7776 7.00457 13.7642 7.00457 12.7076C7.00457 11.6509 7.42434 10.6375 8.17152 9.89032C8.9187 9.14314 9.9321 8.72338 10.9888 8.72338Z" fill="#6A707C"/>
</svg>
